<svg width="24" height="24" viewBox="0 0 24 24" fill="none" xmlns="http://www.w3.org/2000/svg">
<g id="pdf 9">
<g id="Group">
<path id="Vector" d="M15.8511 0H3.41313C3.06685 0 2.78613 0.280714 2.78613 0.825429V23.5714C2.78613 23.7193 3.06685 24 3.41313 24H20.5877C20.934 24 21.2147 23.7193 21.2147 23.5714V5.562C21.2147 5.26371 21.1748 5.16771 21.1046 5.097L16.1177 0.110143C16.047 0.0398571 15.951 0 15.8511 0Z" fill="#E9E9E0"/>
<path id="Vector_2" d="M16.0723 0.0646973V5.14284H21.1504L16.0723 0.0646973Z" fill="#D9D7CA"/>
<path id="Vector_3" d="M8.36401 14.2817C8.21486 14.2817 8.07172 14.2333 7.94958 14.142C7.50344 13.8073 7.44344 13.4349 7.47172 13.1811C7.54972 12.4834 8.41244 11.7531 10.0367 11.0091C10.6813 9.59657 11.2946 7.85614 11.6602 6.402C11.2324 5.47114 10.8167 4.26343 11.1197 3.555C11.226 3.30686 11.3584 3.11657 11.6057 3.03429C11.7034 3.00171 11.9503 2.96057 12.0412 2.96057C12.2572 2.96057 12.447 3.23871 12.5816 3.41014C12.708 3.57129 12.9947 3.91286 12.4217 6.32529C12.9994 7.51843 13.818 8.73386 14.6023 9.56614C15.1641 9.46457 15.6476 9.41271 16.0414 9.41271C16.7126 9.41271 17.1193 9.56914 17.2852 9.89143C17.4223 10.158 17.3661 10.4696 17.118 10.8171C16.8793 11.151 16.5501 11.3276 16.1666 11.3276C15.6454 11.3276 15.0386 10.9984 14.3619 10.3483C13.146 10.6024 11.7262 11.0559 10.5784 11.5577C10.2202 12.318 9.87686 12.9304 9.55715 13.3796C9.11787 13.9946 8.73901 14.2817 8.36401 14.2817ZM9.50487 12.0849C8.58901 12.5996 8.21572 13.0226 8.18872 13.2609C8.18444 13.3003 8.17286 13.404 8.37344 13.5574C8.43729 13.5373 8.81015 13.3671 9.50487 12.0849ZM15.3493 10.1811C15.6986 10.4499 15.7839 10.5857 16.0123 10.5857C16.1126 10.5857 16.3984 10.5814 16.5309 10.3967C16.5947 10.3071 16.6196 10.2497 16.6294 10.2189C16.5767 10.191 16.5069 10.1344 16.1259 10.1344C15.9094 10.1349 15.6373 10.1443 15.3493 10.1811ZM12.1479 7.36029C11.8414 8.42057 11.4369 9.56529 11.0019 10.602C11.8976 10.2544 12.8713 9.951 13.7859 9.73629C13.2073 9.06429 12.6292 8.22514 12.1479 7.36029ZM11.8877 3.73371C11.8457 3.74786 11.3177 4.48671 11.9289 5.112C12.3356 4.20557 11.9062 3.72771 11.8877 3.73371Z" fill="#CC4B4C"/>
<path id="Vector_4" d="M20.5877 24H3.41313C3.06685 24 2.78613 23.7193 2.78613 23.373V16.7143H21.2147V23.373C21.2147 23.7193 20.934 24 20.5877 24Z" fill="#CC4B4C"/>
<g id="Group_2">
<path id="Vector_5" d="M7.45109 22.7143H6.7478V18.396H7.9898C8.17323 18.396 8.35495 18.4251 8.53452 18.4839C8.71409 18.5426 8.87523 18.6304 9.01795 18.7474C9.16066 18.8644 9.27595 19.0063 9.3638 19.1721C9.45166 19.338 9.4958 19.5244 9.4958 19.7319C9.4958 19.9509 9.45852 20.1489 9.38437 20.3267C9.31023 20.5046 9.20652 20.6541 9.07366 20.775C8.9408 20.8959 8.78052 20.9897 8.59323 21.0561C8.40595 21.1226 8.19852 21.1556 7.97223 21.1556H7.45066L7.45109 22.7143ZM7.45109 18.9291V20.64H8.09566C8.18137 20.64 8.26623 20.6254 8.35066 20.5959C8.43466 20.5667 8.5118 20.5187 8.58209 20.4523C8.65237 20.3859 8.70895 20.2933 8.7518 20.1741C8.79466 20.055 8.81609 19.9076 8.81609 19.7319C8.81609 19.6616 8.80623 19.5801 8.78695 19.4889C8.76723 19.3971 8.72737 19.3093 8.66695 19.2253C8.60609 19.1413 8.52123 19.071 8.41195 19.0144C8.30266 18.9579 8.1578 18.9296 7.97823 18.9296L7.45109 18.9291Z" fill="white"/>
<path id="Vector_6" d="M13.8086 20.4351C13.8086 20.7904 13.7704 21.0943 13.6941 21.3463C13.6179 21.5983 13.5214 21.8091 13.404 21.9793C13.2866 22.1494 13.155 22.2831 13.0084 22.3809C12.8619 22.4786 12.7204 22.5514 12.5837 22.6007C12.447 22.6496 12.3219 22.6809 12.2087 22.6946C12.0956 22.7074 12.0116 22.7143 11.9567 22.7143H10.3221V18.396H11.6229C11.9863 18.396 12.3056 18.4539 12.5807 18.5687C12.8559 18.6836 13.0847 18.8374 13.2664 19.0286C13.4481 19.2197 13.5836 19.4379 13.6736 19.6817C13.7636 19.926 13.8086 20.1771 13.8086 20.4351ZM11.7227 22.1987C12.1993 22.1987 12.543 22.0466 12.7539 21.7419C12.9647 21.4371 13.0701 20.9957 13.0701 20.4176C13.0701 20.238 13.0487 20.0601 13.0059 19.8844C12.9626 19.7087 12.8799 19.5497 12.7569 19.407C12.6339 19.2643 12.4667 19.149 12.2559 19.0611C12.045 18.9733 11.7716 18.9291 11.4356 18.9291H11.0254V22.1987H11.7227Z" fill="white"/>
<path id="Vector_7" d="M15.543 18.9291V20.2886H17.3477V20.769H15.543V22.7143H14.8281V18.396H17.529V18.9291H15.543Z" fill="white"/>
</g>
</g>
</g>
</svg>
